<?xml version="1.0" encoding="UTF-8" standalone="no"?>
<!DOCTYPE svg PUBLIC "-//W3C//DTD SVG 1.1//EN"
 "http://www.w3.org/Graphics/SVG/1.1/DTD/svg11.dtd">
<!-- Generated by graphviz version 2.43.0 (0)
 -->
<!-- Title: pitchShifter Pages: 1 -->
<svg width="1058pt" height="596pt"
 viewBox="0.00 0.00 1057.70 596.00" xmlns="http://www.w3.org/2000/svg" xmlns:xlink="http://www.w3.org/1999/xlink">
<g id="graph0" class="graph" transform="scale(1 1) rotate(0) translate(4 592)">
<title>pitchShifter</title>
<polygon fill="white" stroke="transparent" points="-4,4 -4,-592 1053.7,-592 1053.7,4 -4,4"/>
<!-- k_0 -->
<g id="node1" class="node">
<title>k_0</title>
<polygon fill="none" stroke="blue" points="341.7,-588 184.7,-588 184.7,-552 341.7,-552 341.7,-588"/>
<text text-anchor="middle" x="263.2" y="-566.2" font-family="Helvetica,sans-Serif" font-size="16.00">channelIndex:0.0</text>
</g>
<!-- u_1 -->
<g id="node3" class="node">
<title>u_1</title>
<polygon fill="none" stroke="blue" points="602.2,-486 602.2,-510 658.2,-510 658.2,-486 602.2,-486"/>
<text text-anchor="start" x="605.2" y="-494.2" font-family="Helvetica,sans-Serif" font-size="16.00">Select</text>
<polygon fill="none" stroke="blue" points="660.2,-486 660.2,-510 719.2,-510 719.2,-486 660.2,-486"/>
<text text-anchor="start" x="663.2" y="-494.2" font-family="Helvetica,sans-Serif" font-size="16.00">which:</text>
<polygon fill="none" stroke="blue" points="721.2,-486 721.2,-510 785.2,-510 785.2,-486 721.2,-486"/>
<text text-anchor="start" x="724.2" y="-494.2" font-family="Helvetica,sans-Serif" font-size="16.00">array:5</text>
<polygon fill="none" stroke="blue" points="787.2,-486 787.2,-510 809.2,-510 809.2,-486 787.2,-486"/>
<text text-anchor="start" x="790.2" y="-494.2" font-family="Helvetica,sans-Serif" font-size="16.00">:6</text>
<polygon fill="none" stroke="blue" points="811.2,-486 811.2,-510 833.2,-510 833.2,-486 811.2,-486"/>
<text text-anchor="start" x="814.2" y="-494.2" font-family="Helvetica,sans-Serif" font-size="16.00">:7</text>
<polygon fill="none" stroke="blue" points="811.2,-478 811.2,-484 833.2,-484 833.2,-478 811.2,-478"/>
</g>
<!-- k_0&#45;&gt;u_1 -->
<g id="edge1" class="edge">
<title>k_0&#45;&gt;u_1:i_0</title>
<path fill="none" stroke="blue" d="M341.83,-566.12C461.56,-560.71 677.01,-546.47 688.7,-513.8"/>
<polygon fill="blue" stroke="blue" points="688.22,-510.83 690.18,-511.17 689.84,-513.14 687.87,-512.79 688.22,-510.83"/>
<polyline fill="none" stroke="blue" points="688.85,-512.97 688.76,-513.46 "/>
</g>
<!-- u_3 -->
<g id="node5" class="node">
<title>u_3</title>
<polygon fill="none" stroke="blue" points="311.2,-486 311.2,-510 367.2,-510 367.2,-486 311.2,-486"/>
<text text-anchor="start" x="314.2" y="-494.2" font-family="Helvetica,sans-Serif" font-size="16.00">Select</text>
<polygon fill="none" stroke="blue" points="369.2,-486 369.2,-510 428.2,-510 428.2,-486 369.2,-486"/>
<text text-anchor="start" x="372.2" y="-494.2" font-family="Helvetica,sans-Serif" font-size="16.00">which:</text>
<polygon fill="none" stroke="blue" points="430.2,-486 430.2,-510 494.2,-510 494.2,-486 430.2,-486"/>
<text text-anchor="start" x="433.2" y="-494.2" font-family="Helvetica,sans-Serif" font-size="16.00">array:9</text>
<polygon fill="none" stroke="blue" points="496.2,-486 496.2,-510 529.2,-510 529.2,-486 496.2,-486"/>
<text text-anchor="start" x="499.2" y="-494.2" font-family="Helvetica,sans-Serif" font-size="16.00">:10</text>
<polygon fill="none" stroke="blue" points="531.2,-486 531.2,-510 564.2,-510 564.2,-486 531.2,-486"/>
<text text-anchor="start" x="534.2" y="-494.2" font-family="Helvetica,sans-Serif" font-size="16.00">:11</text>
<polygon fill="none" stroke="blue" points="531.2,-478 531.2,-484 564.2,-484 564.2,-478 531.2,-478"/>
</g>
<!-- k_0&#45;&gt;u_3 -->
<g id="edge3" class="edge">
<title>k_0&#45;&gt;u_3:i_0</title>
<path fill="none" stroke="blue" d="M341.73,-562.1C370.5,-554.99 396.52,-540.99 398.12,-513.68"/>
<polygon fill="blue" stroke="blue" points="397.2,-510.97 399.2,-511.03 399.14,-513.03 397.14,-512.97 397.2,-510.97"/>
<polyline fill="none" stroke="blue" points="398.14,-513 398.13,-513.5 "/>
</g>
<!-- u_5 -->
<g id="node7" class="node">
<title>u_5</title>
<polygon fill="none" stroke="blue" points="42.2,-486 42.2,-510 98.2,-510 98.2,-486 42.2,-486"/>
<text text-anchor="start" x="45.2" y="-494.2" font-family="Helvetica,sans-Serif" font-size="16.00">Select</text>
<polygon fill="none" stroke="blue" points="100.2,-486 100.2,-510 159.2,-510 159.2,-486 100.2,-486"/>
<text text-anchor="start" x="103.2" y="-494.2" font-family="Helvetica,sans-Serif" font-size="16.00">which:</text>
<polygon fill="none" stroke="blue" points="161.2,-486 161.2,-510 225.2,-510 225.2,-486 161.2,-486"/>
<text text-anchor="start" x="164.2" y="-494.2" font-family="Helvetica,sans-Serif" font-size="16.00">array:3</text>
<polygon fill="none" stroke="blue" points="227.2,-486 227.2,-510 249.2,-510 249.2,-486 227.2,-486"/>
<text text-anchor="start" x="230.2" y="-494.2" font-family="Helvetica,sans-Serif" font-size="16.00">:4</text>
<polygon fill="none" stroke="blue" points="251.2,-486 251.2,-510 273.2,-510 273.2,-486 251.2,-486"/>
<text text-anchor="start" x="254.2" y="-494.2" font-family="Helvetica,sans-Serif" font-size="16.00">:5</text>
<polygon fill="none" stroke="blue" points="251.2,-478 251.2,-484 273.2,-484 273.2,-478 251.2,-478"/>
</g>
<!-- k_0&#45;&gt;u_5 -->
<g id="edge5" class="edge">
<title>k_0&#45;&gt;u_5:i_0</title>
<path fill="none" stroke="blue" d="M184.48,-561.74C156.22,-554.53 130.84,-540.55 129.28,-513.64"/>
<polygon fill="blue" stroke="blue" points="128.2,-511.03 130.2,-510.97 130.26,-512.97 128.26,-513.03 128.2,-511.03"/>
<polyline fill="none" stroke="blue" points="129.26,-513 129.27,-513.5 "/>
</g>
<!-- u_8 -->
<g id="node10" class="node">
<title>u_8</title>
<polygon fill="none" stroke="blue" points="245.2,-86 245.2,-110 301.2,-110 301.2,-86 245.2,-86"/>
<text text-anchor="start" x="248.2" y="-94.2" font-family="Helvetica,sans-Serif" font-size="16.00">Select</text>
<polygon fill="none" stroke="blue" points="303.2,-86 303.2,-110 362.2,-110 362.2,-86 303.2,-86"/>
<text text-anchor="start" x="306.2" y="-94.2" font-family="Helvetica,sans-Serif" font-size="16.00">which:</text>
<polygon fill="none" stroke="blue" points="364.2,-86 364.2,-110 428.2,-110 428.2,-86 364.2,-86"/>
<text text-anchor="start" x="367.2" y="-94.2" font-family="Helvetica,sans-Serif" font-size="16.00">array:8</text>
<polygon fill="none" stroke="blue" points="430.2,-86 430.2,-110 452.2,-110 452.2,-86 430.2,-86"/>
<text text-anchor="start" x="433.2" y="-94.2" font-family="Helvetica,sans-Serif" font-size="16.00">:9</text>
<polygon fill="none" stroke="blue" points="454.2,-86 454.2,-110 487.2,-110 487.2,-86 454.2,-86"/>
<text text-anchor="start" x="457.2" y="-94.2" font-family="Helvetica,sans-Serif" font-size="16.00">:10</text>
<polygon fill="none" stroke="blue" points="454.2,-78 454.2,-84 487.2,-84 487.2,-78 454.2,-78"/>
</g>
<!-- k_0&#45;&gt;u_8 -->
<g id="edge8" class="edge">
<title>k_0&#45;&gt;u_8:i_0</title>
<path fill="none" stroke="blue" d="M184.66,-561.09C123.2,-553.25 44.53,-539.03 22.2,-516 -9.6,-483.21 3.2,-460.68 3.2,-415 3.2,-415 3.2,-415 3.2,-253 3.2,-94.67 328.36,-268.2 332.17,-113.77"/>
<polygon fill="blue" stroke="blue" points="331.2,-110.99 333.2,-111.01 333.18,-113.01 331.18,-112.99 331.2,-110.99"/>
<polyline fill="none" stroke="blue" points="332.18,-113 332.17,-113.5 "/>
</g>
<!-- k_1 -->
<g id="node2" class="node">
<title>k_1</title>
<polygon fill="none" stroke="blue" points="1049.7,-192 966.7,-192 966.7,-156 1049.7,-156 1049.7,-192"/>
<text text-anchor="middle" x="1008.2" y="-170.2" font-family="Helvetica,sans-Serif" font-size="16.00">gain:0.0</text>
</g>
<!-- u_17 -->
<g id="node19" class="node">
<title>u_17</title>
<polygon fill="none" stroke="black" points="844.2,-86 844.2,-110 859.2,-110 859.2,-86 844.2,-86"/>
<text text-anchor="start" x="847.2" y="-94.2" font-family="Helvetica,sans-Serif" font-size="16.00">*</text>
<polygon fill="none" stroke="black" points="861.2,-86 861.2,-110 883.2,-110 883.2,-86 861.2,-86"/>
<text text-anchor="start" x="864.2" y="-94.2" font-family="Helvetica,sans-Serif" font-size="16.00">a:</text>
<polygon fill="none" stroke="black" points="885.2,-86 885.2,-110 907.2,-110 907.2,-86 885.2,-86"/>
<text text-anchor="start" x="888.2" y="-94.2" font-family="Helvetica,sans-Serif" font-size="16.00">b:</text>
<polygon fill="none" stroke="black" points="885.2,-78 885.2,-84 907.2,-84 907.2,-78 885.2,-78"/>
</g>
<!-- k_1&#45;&gt;u_17 -->
<g id="edge23" class="edge">
<title>k_1&#45;&gt;u_17:i_1</title>
<path fill="none" stroke="blue" d="M996.48,-155.98C980.1,-134.37 948.15,-99.67 910.89,-98.06"/>
<polygon fill="blue" stroke="blue" points="908.18,-99 908.22,-97 910.22,-97.04 910.18,-99.04 908.18,-99"/>
<polyline fill="none" stroke="blue" points="910.2,-98.04 910.7,-98.05 "/>
</g>
<!-- u_2 -->
<g id="node4" class="node">
<title>u_2</title>
<polygon fill="none" stroke="black" points="695.2,-406 695.2,-430 794.2,-430 794.2,-406 695.2,-406"/>
<text text-anchor="start" x="698.2" y="-414.2" font-family="Helvetica,sans-Serif" font-size="16.00">InFeedback</text>
<polygon fill="none" stroke="black" points="796.2,-406 796.2,-430 837.2,-430 837.2,-406 796.2,-406"/>
<text text-anchor="start" x="799.2" y="-414.2" font-family="Helvetica,sans-Serif" font-size="16.00">bus:</text>
<polygon fill="none" stroke="black" points="796.2,-398 796.2,-404 837.2,-404 837.2,-398 796.2,-398"/>
</g>
<!-- u_1&#45;&gt;u_2 -->
<g id="edge2" class="edge">
<title>u_1:o_0&#45;&gt;u_2:i_0</title>
<path fill="none" stroke="blue" d="M822.2,-477C822.2,-457.4 817.66,-452.06 817.23,-433.79"/>
<polygon fill="blue" stroke="blue" points="816.2,-431.01 818.2,-430.99 818.22,-432.99 816.22,-433.01 816.2,-431.01"/>
<polyline fill="none" stroke="blue" points="817.22,-433 817.23,-433.5 "/>
</g>
<!-- u_10 -->
<g id="node12" class="node">
<title>u_10</title>
<polygon fill="none" stroke="black" points="566.2,-326 566.2,-350 586.2,-350 586.2,-326 566.2,-326"/>
<text text-anchor="start" x="569.2" y="-334.2" font-family="Helvetica,sans-Serif" font-size="16.00">+</text>
<polygon fill="none" stroke="black" points="588.2,-326 588.2,-350 610.2,-350 610.2,-326 588.2,-326"/>
<text text-anchor="start" x="591.2" y="-334.2" font-family="Helvetica,sans-Serif" font-size="16.00">a:</text>
<polygon fill="none" stroke="black" points="612.2,-326 612.2,-350 634.2,-350 634.2,-326 612.2,-326"/>
<text text-anchor="start" x="615.2" y="-334.2" font-family="Helvetica,sans-Serif" font-size="16.00">b:</text>
<polygon fill="none" stroke="black" points="612.2,-318 612.2,-324 634.2,-324 634.2,-318 612.2,-318"/>
</g>
<!-- u_2&#45;&gt;u_10 -->
<g id="edge10" class="edge">
<title>u_2:o_0&#45;&gt;u_10:i_1</title>
<path fill="none" stroke="black" d="M817.2,-397C817.2,-396.69 660.18,-345.96 637.83,-338.83"/>
<polygon fill="black" stroke="black" points="634.9,-338.95 635.5,-337.05 637.41,-337.65 636.81,-339.55 634.9,-338.95"/>
<polyline fill="none" stroke="black" points="637.11,-338.6 637.58,-338.75 "/>
</g>
<!-- u_4 -->
<g id="node6" class="node">
<title>u_4</title>
<polygon fill="none" stroke="blue" points="446.2,-406 446.2,-430 468.2,-430 468.2,-406 446.2,-406"/>
<text text-anchor="start" x="449.2" y="-414.2" font-family="Helvetica,sans-Serif" font-size="16.00">In</text>
<polygon fill="none" stroke="blue" points="470.2,-406 470.2,-430 511.2,-430 511.2,-406 470.2,-406"/>
<text text-anchor="start" x="473.2" y="-414.2" font-family="Helvetica,sans-Serif" font-size="16.00">bus:</text>
<polygon fill="none" stroke="blue" points="470.2,-398 470.2,-404 511.2,-404 511.2,-398 470.2,-398"/>
</g>
<!-- u_3&#45;&gt;u_4 -->
<g id="edge4" class="edge">
<title>u_3:o_0&#45;&gt;u_4:i_0</title>
<path fill="none" stroke="blue" d="M548.2,-477C548.2,-445.34 494.27,-462.55 491.33,-433.56"/>
<polygon fill="blue" stroke="blue" points="490.2,-431.05 492.2,-430.95 492.3,-432.95 490.3,-433.05 490.2,-431.05"/>
<polyline fill="none" stroke="blue" points="491.3,-433 491.32,-433.5 "/>
</g>
<!-- u_11 -->
<g id="node13" class="node">
<title>u_11</title>
<polygon fill="none" stroke="black" points="403.2,-246 403.2,-270 459.2,-270 459.2,-246 403.2,-246"/>
<text text-anchor="start" x="406.2" y="-254.2" font-family="Helvetica,sans-Serif" font-size="16.00">Select</text>
<polygon fill="none" stroke="black" points="461.2,-246 461.2,-270 520.2,-270 520.2,-246 461.2,-246"/>
<text text-anchor="start" x="464.2" y="-254.2" font-family="Helvetica,sans-Serif" font-size="16.00">which:</text>
<polygon fill="none" stroke="black" points="522.2,-246 522.2,-270 575.2,-270 575.2,-246 522.2,-246"/>
<text text-anchor="start" x="525.2" y="-254.2" font-family="Helvetica,sans-Serif" font-size="16.00">array:</text>
<polygon fill="none" stroke="black" points="577.2,-246 577.2,-270 589.2,-270 589.2,-246 577.2,-246"/>
<text text-anchor="start" x="580.2" y="-254.2" font-family="Helvetica,sans-Serif" font-size="16.00">:</text>
<polygon fill="none" stroke="black" points="591.2,-246 591.2,-270 603.2,-270 603.2,-246 591.2,-246"/>
<text text-anchor="start" x="594.2" y="-254.2" font-family="Helvetica,sans-Serif" font-size="16.00">:</text>
<polygon fill="none" stroke="black" points="591.2,-238 591.2,-244 603.2,-244 603.2,-238 591.2,-238"/>
</g>
<!-- u_4&#45;&gt;u_11 -->
<g id="edge11" class="edge">
<title>u_4:o_0&#45;&gt;u_11:i_0</title>
<path fill="none" stroke="blue" d="M491.2,-397C491.2,-341.87 490.23,-327.45 490.2,-273.59"/>
<polygon fill="blue" stroke="blue" points="489.2,-271 491.2,-271 491.2,-273 489.2,-273 489.2,-271"/>
<polyline fill="none" stroke="blue" points="490.2,-273 490.2,-273.5 "/>
</g>
<!-- u_6 -->
<g id="node8" class="node">
<title>u_6</title>
<polygon fill="none" stroke="blue" points="281.2,-406 281.2,-430 303.2,-430 303.2,-406 281.2,-406"/>
<text text-anchor="start" x="284.2" y="-414.2" font-family="Helvetica,sans-Serif" font-size="16.00">In</text>
<polygon fill="none" stroke="blue" points="305.2,-406 305.2,-430 346.2,-430 346.2,-406 305.2,-406"/>
<text text-anchor="start" x="308.2" y="-414.2" font-family="Helvetica,sans-Serif" font-size="16.00">bus:</text>
<polygon fill="none" stroke="blue" points="305.2,-398 305.2,-404 346.2,-404 346.2,-398 305.2,-398"/>
</g>
<!-- u_5&#45;&gt;u_6 -->
<g id="edge6" class="edge">
<title>u_5:o_0&#45;&gt;u_6:i_0</title>
<path fill="none" stroke="blue" d="M274.2,-481C281.59,-481 319.55,-445.32 325.43,-433.46"/>
<polygon fill="blue" stroke="blue" points="325.25,-430.7 327.16,-431.3 326.56,-433.21 324.65,-432.61 325.25,-430.7"/>
<polyline fill="none" stroke="blue" points="325.61,-432.91 325.46,-433.39 "/>
</g>
<!-- u_7 -->
<g id="node9" class="node">
<title>u_7</title>
<polygon fill="none" stroke="blue" points="168.2,-246 168.2,-270 191.2,-270 191.2,-246 168.2,-246"/>
<text text-anchor="start" x="171.2" y="-254.2" font-family="Helvetica,sans-Serif" font-size="16.00">**</text>
<polygon fill="none" stroke="blue" points="193.2,-246 193.2,-270 325.2,-270 325.2,-246 193.2,-246"/>
<text text-anchor="start" x="196.2" y="-254.2" font-family="Helvetica,sans-Serif" font-size="16.00">a:1.059463094</text>
<polygon fill="none" stroke="blue" points="327.2,-246 327.2,-270 349.2,-270 349.2,-246 327.2,-246"/>
<text text-anchor="start" x="330.2" y="-254.2" font-family="Helvetica,sans-Serif" font-size="16.00">b:</text>
<polygon fill="none" stroke="blue" points="327.2,-238 327.2,-244 349.2,-244 349.2,-238 327.2,-238"/>
</g>
<!-- u_6&#45;&gt;u_7 -->
<g id="edge7" class="edge">
<title>u_6:o_0&#45;&gt;u_7:i_1</title>
<path fill="none" stroke="blue" d="M326.2,-397C326.2,-341.63 337.83,-327.69 338.19,-273.61"/>
<polygon fill="blue" stroke="blue" points="337.2,-271 339.2,-271 339.19,-273 337.19,-273 337.2,-271"/>
<polyline fill="none" stroke="blue" points="338.19,-273 338.19,-273.5 "/>
</g>
<!-- u_16 -->
<g id="node18" class="node">
<title>u_16</title>
<polygon fill="none" stroke="black" points="348.2,-166 348.2,-190 431.2,-190 431.2,-166 348.2,-166"/>
<text text-anchor="start" x="351.2" y="-174.2" font-family="Helvetica,sans-Serif" font-size="16.00">PitchShift</text>
<polygon fill="none" stroke="black" points="433.2,-166 433.2,-190 460.2,-190 460.2,-166 433.2,-166"/>
<text text-anchor="start" x="436.2" y="-174.2" font-family="Helvetica,sans-Serif" font-size="16.00">in:</text>
<polygon fill="none" stroke="black" points="462.2,-166 462.2,-190 568.2,-190 568.2,-166 462.2,-166"/>
<text text-anchor="start" x="465.2" y="-174.2" font-family="Helvetica,sans-Serif" font-size="16.00">windowSize:</text>
<polygon fill="none" stroke="black" points="570.2,-166 570.2,-190 664.2,-190 664.2,-166 570.2,-166"/>
<text text-anchor="start" x="573.2" y="-174.2" font-family="Helvetica,sans-Serif" font-size="16.00">pitchRatio:</text>
<polygon fill="none" stroke="black" points="666.2,-166 666.2,-190 803.2,-190 803.2,-166 666.2,-166"/>
<text text-anchor="start" x="669.2" y="-174.2" font-family="Helvetica,sans-Serif" font-size="16.00">pitchDispersion:</text>
<polygon fill="none" stroke="black" points="805.2,-166 805.2,-190 938.2,-190 938.2,-166 805.2,-166"/>
<text text-anchor="start" x="808.2" y="-174.2" font-family="Helvetica,sans-Serif" font-size="16.00">timeDispersion:</text>
<polygon fill="none" stroke="black" points="805.2,-158 805.2,-164 938.2,-164 938.2,-158 805.2,-158"/>
</g>
<!-- u_7&#45;&gt;u_16 -->
<g id="edge19" class="edge">
<title>u_7:o_0&#45;&gt;u_16:i_2</title>
<path fill="none" stroke="blue" d="M350.2,-241C365.83,-241 368.93,-235.36 384.2,-232 434.64,-220.91 610.85,-242.78 617.03,-193.7"/>
<polygon fill="blue" stroke="blue" points="616.2,-190.94 618.2,-191.06 618.08,-193.06 616.08,-192.93 616.2,-190.94"/>
<polyline fill="none" stroke="blue" points="617.08,-193 617.05,-193.5 "/>
</g>
<!-- u_18 -->
<g id="node20" class="node">
<title>u_18</title>
<polygon fill="none" stroke="black" points="423.2,-6 423.2,-30 459.2,-30 459.2,-6 423.2,-6"/>
<text text-anchor="start" x="426.2" y="-14.2" font-family="Helvetica,sans-Serif" font-size="16.00">Out</text>
<polygon fill="none" stroke="black" points="461.2,-6 461.2,-30 502.2,-30 502.2,-6 461.2,-6"/>
<text text-anchor="start" x="464.2" y="-14.2" font-family="Helvetica,sans-Serif" font-size="16.00">bus:</text>
<polygon fill="none" stroke="black" points="504.2,-6 504.2,-30 631.2,-30 631.2,-6 504.2,-6"/>
<text text-anchor="start" x="507.2" y="-14.2" font-family="Helvetica,sans-Serif" font-size="16.00">channelsArray:</text>
</g>
<!-- u_8&#45;&gt;u_18 -->
<g id="edge24" class="edge">
<title>u_8:o_0&#45;&gt;u_18:i_0</title>
<path fill="none" stroke="blue" d="M488.2,-81C509.76,-81 483.42,-55.55 481.33,-33.65"/>
<polygon fill="blue" stroke="blue" points="480.2,-31.05 482.2,-30.95 482.3,-32.95 480.3,-33.05 480.2,-31.05"/>
<polyline fill="none" stroke="blue" points="481.3,-33 481.32,-33.5 "/>
</g>
<!-- u_9 -->
<g id="node11" class="node">
<title>u_9</title>
<polygon fill="none" stroke="black" points="549.2,-406 549.2,-430 571.2,-430 571.2,-406 549.2,-406"/>
<text text-anchor="start" x="552.2" y="-414.2" font-family="Helvetica,sans-Serif" font-size="16.00">In</text>
<polygon fill="none" stroke="black" points="573.2,-406 573.2,-430 625.2,-430 625.2,-406 573.2,-406"/>
<text text-anchor="start" x="576.2" y="-414.2" font-family="Helvetica,sans-Serif" font-size="16.00">bus:4</text>
<polygon fill="none" stroke="black" points="573.2,-398 573.2,-404 625.2,-404 625.2,-398 573.2,-398"/>
</g>
<!-- u_9&#45;&gt;u_10 -->
<g id="edge9" class="edge">
<title>u_9:o_0&#45;&gt;u_10:i_0</title>
<path fill="none" stroke="black" d="M599.2,-397C599.2,-377.51 599.2,-371.96 599.2,-353.78"/>
<polygon fill="black" stroke="black" points="598.2,-351 600.2,-351 600.2,-353 598.2,-353 598.2,-351"/>
<polyline fill="none" stroke="black" points="599.2,-353 599.2,-353.5 "/>
</g>
<!-- u_9&#45;&gt;u_11 -->
<g id="edge12" class="edge">
<title>u_9:o_0&#45;&gt;u_11:i_1</title>
<path fill="none" stroke="black" d="M599.2,-397C599.2,-367.57 560.04,-382.48 547.2,-356 531.1,-322.8 548.35,-309.42 549.17,-273.62"/>
<polygon fill="black" stroke="black" points="548.2,-270.99 550.2,-271.01 550.18,-273.01 548.18,-272.99 548.2,-270.99"/>
<polyline fill="none" stroke="black" points="549.18,-273 549.17,-273.5 "/>
</g>
<!-- u_9&#45;&gt;u_11 -->
<g id="edge14" class="edge">
<title>u_9:o_0&#45;&gt;u_11:i_3</title>
<path fill="none" stroke="black" d="M626.2,-401C667.54,-401 671.9,-348.86 653.2,-312 639.68,-285.35 599.8,-300.81 597.32,-273.75"/>
<polygon fill="black" stroke="black" points="596.2,-271.04 598.2,-270.96 598.29,-272.95 596.29,-273.04 596.2,-271.04"/>
<polyline fill="none" stroke="black" points="597.29,-273 597.31,-273.5 "/>
</g>
<!-- u_10&#45;&gt;u_11 -->
<g id="edge13" class="edge">
<title>u_10:o_0&#45;&gt;u_11:i_2</title>
<path fill="none" stroke="black" d="M623.2,-317C623.2,-290.86 585.96,-297.56 583.35,-273.73"/>
<polygon fill="black" stroke="black" points="582.2,-271.05 584.2,-270.95 584.3,-272.94 582.31,-273.05 582.2,-271.05"/>
<polyline fill="none" stroke="black" points="583.31,-273 583.33,-273.5 "/>
</g>
<!-- u_11&#45;&gt;u_16 -->
<g id="edge17" class="edge">
<title>u_11:o_0&#45;&gt;u_16:i_0</title>
<path fill="none" stroke="black" d="M604.2,-241C608.22,-241 605.83,-235.04 603.2,-232 556.67,-178.2 449.19,-260.8 446.26,-193.87"/>
<polygon fill="black" stroke="black" points="445.2,-191.02 447.2,-190.98 447.24,-192.98 445.24,-193.02 445.2,-191.02"/>
<polyline fill="none" stroke="black" points="446.24,-193 446.25,-193.5 "/>
</g>
<!-- u_12 -->
<g id="node14" class="node">
<title>u_12</title>
<polygon fill="none" stroke="blue" points="710.2,-326 710.2,-350 732.2,-350 732.2,-326 710.2,-326"/>
<text text-anchor="start" x="713.2" y="-334.2" font-family="Helvetica,sans-Serif" font-size="16.00">In</text>
<polygon fill="none" stroke="blue" points="734.2,-326 734.2,-350 786.2,-350 786.2,-326 734.2,-326"/>
<text text-anchor="start" x="737.2" y="-334.2" font-family="Helvetica,sans-Serif" font-size="16.00">bus:0</text>
<polygon fill="none" stroke="blue" points="734.2,-318 734.2,-324 786.2,-324 786.2,-318 734.2,-318"/>
</g>
<!-- u_15 -->
<g id="node17" class="node">
<title>u_15</title>
<polygon fill="none" stroke="blue" points="820.2,-246 820.2,-270 835.2,-270 835.2,-246 820.2,-246"/>
<text text-anchor="start" x="823.2" y="-254.2" font-family="Helvetica,sans-Serif" font-size="16.00">*</text>
<polygon fill="none" stroke="blue" points="837.2,-246 837.2,-270 859.2,-270 859.2,-246 837.2,-246"/>
<text text-anchor="start" x="840.2" y="-254.2" font-family="Helvetica,sans-Serif" font-size="16.00">a:</text>
<polygon fill="none" stroke="blue" points="861.2,-246 861.2,-270 883.2,-270 883.2,-246 861.2,-246"/>
<text text-anchor="start" x="864.2" y="-254.2" font-family="Helvetica,sans-Serif" font-size="16.00">b:</text>
<polygon fill="none" stroke="blue" points="861.2,-238 861.2,-244 883.2,-244 883.2,-238 861.2,-238"/>
</g>
<!-- u_12&#45;&gt;u_15 -->
<g id="edge15" class="edge">
<title>u_12:o_0&#45;&gt;u_15:i_0</title>
<path fill="none" stroke="blue" d="M787.2,-321C795.28,-321 840.3,-285.96 847.29,-273.61"/>
<polygon fill="blue" stroke="blue" points="847.26,-270.67 849.14,-271.33 848.49,-273.22 846.6,-272.56 847.26,-270.67"/>
<polyline fill="none" stroke="blue" points="847.54,-272.89 847.38,-273.36 "/>
</g>
<!-- u_12&#45;&gt;u_16 -->
<g id="edge18" class="edge">
<title>u_12:o_0&#45;&gt;u_16:i_1</title>
<path fill="none" stroke="blue" d="M760.2,-317C760.2,-271.42 703.86,-301.67 666.2,-276 643.35,-260.42 645.4,-247.06 622.2,-232 580.23,-204.76 517.45,-240.62 515.26,-193.6"/>
<polygon fill="blue" stroke="blue" points="514.2,-191.02 516.2,-190.98 516.25,-192.98 514.25,-193.02 514.2,-191.02"/>
<polyline fill="none" stroke="blue" points="515.25,-193 515.26,-193.5 "/>
</g>
<!-- u_13 -->
<g id="node15" class="node">
<title>u_13</title>
<polygon fill="none" stroke="blue" points="685.2,-246 685.2,-270 707.2,-270 707.2,-246 685.2,-246"/>
<text text-anchor="start" x="688.2" y="-254.2" font-family="Helvetica,sans-Serif" font-size="16.00">In</text>
<polygon fill="none" stroke="blue" points="709.2,-246 709.2,-270 761.2,-270 761.2,-246 709.2,-246"/>
<text text-anchor="start" x="712.2" y="-254.2" font-family="Helvetica,sans-Serif" font-size="16.00">bus:2</text>
<polygon fill="none" stroke="blue" points="709.2,-238 709.2,-244 761.2,-244 761.2,-238 709.2,-238"/>
</g>
<!-- u_13&#45;&gt;u_16 -->
<g id="edge20" class="edge">
<title>u_13:o_0&#45;&gt;u_16:i_3</title>
<path fill="none" stroke="blue" d="M735.2,-237C735.2,-217.51 735.2,-211.96 735.2,-193.78"/>
<polygon fill="blue" stroke="blue" points="734.2,-191 736.2,-191 736.2,-193 734.2,-193 734.2,-191"/>
<polyline fill="none" stroke="blue" points="735.2,-193 735.2,-193.5 "/>
</g>
<!-- u_14 -->
<g id="node16" class="node">
<title>u_14</title>
<polygon fill="none" stroke="blue" points="824.2,-326 824.2,-350 846.2,-350 846.2,-326 824.2,-326"/>
<text text-anchor="start" x="827.2" y="-334.2" font-family="Helvetica,sans-Serif" font-size="16.00">In</text>
<polygon fill="none" stroke="blue" points="848.2,-326 848.2,-350 900.2,-350 900.2,-326 848.2,-326"/>
<text text-anchor="start" x="851.2" y="-334.2" font-family="Helvetica,sans-Serif" font-size="16.00">bus:1</text>
<polygon fill="none" stroke="blue" points="848.2,-318 848.2,-324 900.2,-324 900.2,-318 848.2,-318"/>
</g>
<!-- u_14&#45;&gt;u_15 -->
<g id="edge16" class="edge">
<title>u_14:o_0&#45;&gt;u_15:i_1</title>
<path fill="none" stroke="blue" d="M874.2,-317C874.2,-297.5 872.38,-291.97 872.21,-273.78"/>
<polygon fill="blue" stroke="blue" points="871.2,-271 873.2,-271 873.21,-273 871.21,-273 871.2,-271"/>
<polyline fill="none" stroke="blue" points="872.21,-273 872.21,-273.5 "/>
</g>
<!-- u_15&#45;&gt;u_16 -->
<g id="edge21" class="edge">
<title>u_15:o_0&#45;&gt;u_16:i_4</title>
<path fill="none" stroke="blue" d="M872.2,-237C872.2,-217.51 872.2,-211.96 872.2,-193.78"/>
<polygon fill="blue" stroke="blue" points="871.2,-191 873.2,-191 873.2,-193 871.2,-193 871.2,-191"/>
<polyline fill="none" stroke="blue" points="872.2,-193 872.2,-193.5 "/>
</g>
<!-- u_16&#45;&gt;u_17 -->
<g id="edge22" class="edge">
<title>u_16:o_0&#45;&gt;u_17:i_0</title>
<path fill="none" stroke="black" d="M872.2,-157C872.2,-137.51 872.2,-131.96 872.2,-113.78"/>
<polygon fill="black" stroke="black" points="871.2,-111 873.2,-111 873.2,-113 871.2,-113 871.2,-111"/>
<polyline fill="none" stroke="black" points="872.2,-113 872.2,-113.5 "/>
</g>
<!-- u_17&#45;&gt;u_18 -->
<g id="edge25" class="edge">
<title>u_17:o_0&#45;&gt;u_18:i_1</title>
<path fill="none" stroke="black" d="M896.2,-77C896.2,-47.76 674.88,-19.58 635.11,-18.06"/>
<polygon fill="black" stroke="black" points="632.18,-19 632.22,-17 634.22,-17.04 634.18,-19.04 632.18,-19"/>
<polyline fill="none" stroke="black" points="634.2,-18.04 634.7,-18.06 "/>
</g>
</g>
</svg>
