<?xml version="1.0" encoding="UTF-8" standalone="no"?>
<!DOCTYPE svg PUBLIC "-//W3C//DTD SVG 1.1//EN"
 "http://www.w3.org/Graphics/SVG/1.1/DTD/svg11.dtd">
<!-- Generated by graphviz version 2.43.0 (0)
 -->
<!-- Title: feedbackDelayLine Pages: 1 -->
<svg width="1948pt" height="932pt"
 viewBox="0.00 0.00 1947.50 932.00" xmlns="http://www.w3.org/2000/svg" xmlns:xlink="http://www.w3.org/1999/xlink">
<g id="graph0" class="graph" transform="scale(1 1) rotate(0) translate(4 928)">
<title>feedbackDelayLine</title>
<polygon fill="white" stroke="transparent" points="-4,4 -4,-928 1943.5,-928 1943.5,4 -4,4"/>
<!-- k_0 -->
<g id="node1" class="node">
<title>k_0</title>
<polygon fill="none" stroke="blue" points="467,-600 310,-600 310,-564 467,-564 467,-600"/>
<text text-anchor="middle" x="388.5" y="-578.2" font-family="Helvetica,sans-Serif" font-size="16.00">channelIndex:0.0</text>
</g>
<!-- u_11 -->
<g id="node14" class="node">
<title>u_11</title>
<polygon fill="none" stroke="blue" points="379.5,-414 379.5,-438 435.5,-438 435.5,-414 379.5,-414"/>
<text text-anchor="start" x="382.5" y="-422.2" font-family="Helvetica,sans-Serif" font-size="16.00">Select</text>
<polygon fill="none" stroke="blue" points="437.5,-414 437.5,-438 496.5,-438 496.5,-414 437.5,-414"/>
<text text-anchor="start" x="440.5" y="-422.2" font-family="Helvetica,sans-Serif" font-size="16.00">which:</text>
<polygon fill="none" stroke="blue" points="498.5,-414 498.5,-438 562.5,-438 562.5,-414 498.5,-414"/>
<text text-anchor="start" x="501.5" y="-422.2" font-family="Helvetica,sans-Serif" font-size="16.00">array:8</text>
<polygon fill="none" stroke="blue" points="564.5,-414 564.5,-438 586.5,-438 586.5,-414 564.5,-414"/>
<text text-anchor="start" x="567.5" y="-422.2" font-family="Helvetica,sans-Serif" font-size="16.00">:9</text>
<polygon fill="none" stroke="blue" points="588.5,-414 588.5,-438 621.5,-438 621.5,-414 588.5,-414"/>
<text text-anchor="start" x="591.5" y="-422.2" font-family="Helvetica,sans-Serif" font-size="16.00">:10</text>
<polygon fill="none" stroke="blue" points="588.5,-406 588.5,-412 621.5,-412 621.5,-406 588.5,-406"/>
</g>
<!-- k_0&#45;&gt;u_11 -->
<g id="edge10" class="edge">
<title>k_0&#45;&gt;u_11:i_0</title>
<path fill="none" stroke="blue" d="M405.42,-563.85C427.96,-539.15 465.16,-491.08 466.46,-441.65"/>
<polygon fill="blue" stroke="blue" points="465.5,-438.99 467.5,-439.01 467.47,-441.01 465.47,-440.99 465.5,-438.99"/>
<polyline fill="none" stroke="blue" points="466.47,-441 466.47,-441.5 "/>
</g>
<!-- u_14 -->
<g id="node17" class="node">
<title>u_14</title>
<polygon fill="none" stroke="blue" points="10.5,-494 10.5,-518 66.5,-518 66.5,-494 10.5,-494"/>
<text text-anchor="start" x="13.5" y="-502.2" font-family="Helvetica,sans-Serif" font-size="16.00">Select</text>
<polygon fill="none" stroke="blue" points="68.5,-494 68.5,-518 127.5,-518 127.5,-494 68.5,-494"/>
<text text-anchor="start" x="71.5" y="-502.2" font-family="Helvetica,sans-Serif" font-size="16.00">which:</text>
<polygon fill="none" stroke="blue" points="129.5,-494 129.5,-518 193.5,-518 193.5,-494 129.5,-494"/>
<text text-anchor="start" x="132.5" y="-502.2" font-family="Helvetica,sans-Serif" font-size="16.00">array:9</text>
<polygon fill="none" stroke="blue" points="195.5,-494 195.5,-518 228.5,-518 228.5,-494 195.5,-494"/>
<text text-anchor="start" x="198.5" y="-502.2" font-family="Helvetica,sans-Serif" font-size="16.00">:10</text>
<polygon fill="none" stroke="blue" points="230.5,-494 230.5,-518 263.5,-518 263.5,-494 230.5,-494"/>
<text text-anchor="start" x="233.5" y="-502.2" font-family="Helvetica,sans-Serif" font-size="16.00">:11</text>
<polygon fill="none" stroke="blue" points="230.5,-486 230.5,-492 263.5,-492 263.5,-486 230.5,-486"/>
</g>
<!-- k_0&#45;&gt;u_14 -->
<g id="edge14" class="edge">
<title>k_0&#45;&gt;u_14:i_0</title>
<path fill="none" stroke="blue" d="M309.75,-579.47C225.25,-575.69 102.41,-563.03 97.64,-521.52"/>
<polygon fill="blue" stroke="blue" points="96.5,-519.06 98.5,-518.94 98.61,-520.94 96.62,-521.05 96.5,-519.06"/>
<polyline fill="none" stroke="blue" points="97.61,-521 97.64,-521.5 "/>
</g>
<!-- u_30 -->
<g id="node33" class="node">
<title>u_30</title>
<polygon fill="none" stroke="blue" points="483.5,-334 483.5,-358 539.5,-358 539.5,-334 483.5,-334"/>
<text text-anchor="start" x="486.5" y="-342.2" font-family="Helvetica,sans-Serif" font-size="16.00">Select</text>
<polygon fill="none" stroke="blue" points="541.5,-334 541.5,-358 600.5,-358 600.5,-334 541.5,-334"/>
<text text-anchor="start" x="544.5" y="-342.2" font-family="Helvetica,sans-Serif" font-size="16.00">which:</text>
<polygon fill="none" stroke="blue" points="602.5,-334 602.5,-358 666.5,-358 666.5,-334 602.5,-334"/>
<text text-anchor="start" x="605.5" y="-342.2" font-family="Helvetica,sans-Serif" font-size="16.00">array:5</text>
<polygon fill="none" stroke="blue" points="668.5,-334 668.5,-358 690.5,-358 690.5,-334 668.5,-334"/>
<text text-anchor="start" x="671.5" y="-342.2" font-family="Helvetica,sans-Serif" font-size="16.00">:6</text>
<polygon fill="none" stroke="blue" points="692.5,-334 692.5,-358 714.5,-358 714.5,-334 692.5,-334"/>
<text text-anchor="start" x="695.5" y="-342.2" font-family="Helvetica,sans-Serif" font-size="16.00">:7</text>
<polygon fill="none" stroke="blue" points="692.5,-326 692.5,-332 714.5,-332 714.5,-326 692.5,-326"/>
</g>
<!-- k_0&#45;&gt;u_30 -->
<g id="edge45" class="edge">
<title>k_0&#45;&gt;u_30:i_0</title>
<path fill="none" stroke="blue" d="M459.73,-563.94C519.69,-545.4 601.69,-509.27 640.5,-444 650.49,-427.19 650.22,-416.97 640.5,-400 623.06,-369.57 573.32,-393.66 570.62,-361.82"/>
<polygon fill="blue" stroke="blue" points="569.5,-359.04 571.5,-358.96 571.58,-360.96 569.58,-361.04 569.5,-359.04"/>
<polyline fill="none" stroke="blue" points="570.58,-361 570.6,-361.5 "/>
</g>
<!-- k_1 -->
<g id="node2" class="node">
<title>k_1</title>
<polygon fill="none" stroke="blue" points="1462,-920 1309,-920 1309,-884 1462,-884 1462,-920"/>
<text text-anchor="middle" x="1385.5" y="-898.2" font-family="Helvetica,sans-Serif" font-size="16.00">delayTime:0.014</text>
</g>
<!-- u_6 -->
<g id="node9" class="node">
<title>u_6</title>
<polygon fill="none" stroke="blue" points="1357.5,-814 1357.5,-838 1372.5,-838 1372.5,-814 1357.5,-814"/>
<text text-anchor="start" x="1360.5" y="-822.2" font-family="Helvetica,sans-Serif" font-size="16.00">*</text>
<polygon fill="none" stroke="blue" points="1374.5,-814 1374.5,-838 1396.5,-838 1396.5,-814 1374.5,-814"/>
<text text-anchor="start" x="1377.5" y="-822.2" font-family="Helvetica,sans-Serif" font-size="16.00">a:</text>
<polygon fill="none" stroke="blue" points="1398.5,-814 1398.5,-838 1489.5,-838 1489.5,-814 1398.5,-814"/>
<text text-anchor="start" x="1401.5" y="-822.2" font-family="Helvetica,sans-Serif" font-size="16.00">b:48000.0</text>
<polygon fill="none" stroke="blue" points="1398.5,-806 1398.5,-812 1489.5,-812 1489.5,-806 1398.5,-806"/>
</g>
<!-- k_1&#45;&gt;u_6 -->
<g id="edge3" class="edge">
<title>k_1&#45;&gt;u_6:i_0</title>
<path fill="none" stroke="blue" d="M1385.5,-883.89C1385.5,-872.12 1385.5,-856.05 1385.5,-841.51"/>
<polygon fill="blue" stroke="blue" points="1384.5,-839 1386.5,-839 1386.5,-841 1384.5,-841 1384.5,-839"/>
<polyline fill="none" stroke="blue" points="1385.5,-841 1385.5,-841.5 "/>
</g>
<!-- k_2 -->
<g id="node3" class="node">
<title>k_2</title>
<polygon fill="none" stroke="blue" points="671.5,-600 485.5,-600 485.5,-564 671.5,-564 671.5,-600"/>
<text text-anchor="middle" x="578.5" y="-578.2" font-family="Helvetica,sans-Serif" font-size="16.00">feedbackAmount:0.0</text>
</g>
<!-- u_13 -->
<g id="node16" class="node">
<title>u_13</title>
<polygon fill="none" stroke="black" points="358.5,-254 358.5,-278 373.5,-278 373.5,-254 358.5,-254"/>
<text text-anchor="start" x="361.5" y="-262.2" font-family="Helvetica,sans-Serif" font-size="16.00">*</text>
<polygon fill="none" stroke="black" points="375.5,-254 375.5,-278 397.5,-278 397.5,-254 375.5,-254"/>
<text text-anchor="start" x="378.5" y="-262.2" font-family="Helvetica,sans-Serif" font-size="16.00">a:</text>
<polygon fill="none" stroke="black" points="399.5,-254 399.5,-278 421.5,-278 421.5,-254 399.5,-254"/>
<text text-anchor="start" x="402.5" y="-262.2" font-family="Helvetica,sans-Serif" font-size="16.00">b:</text>
<polygon fill="none" stroke="black" points="399.5,-246 399.5,-252 421.5,-252 421.5,-246 399.5,-246"/>
</g>
<!-- k_2&#45;&gt;u_13 -->
<g id="edge12" class="edge">
<title>k_2&#45;&gt;u_13:i_0</title>
<path fill="none" stroke="blue" d="M523.62,-563.88C471.12,-544.23 394.99,-506.4 360.5,-444 333.84,-395.76 345.13,-372.93 360.5,-320 366.23,-300.25 384.66,-300.5 386.37,-281.89"/>
<polygon fill="blue" stroke="blue" points="385.5,-278.96 387.5,-279.04 387.41,-281.04 385.41,-280.95 385.5,-278.96"/>
<polyline fill="none" stroke="blue" points="386.41,-281 386.39,-281.5 "/>
</g>
<!-- u_17 -->
<g id="node20" class="node">
<title>u_17</title>
<polygon fill="none" stroke="black" points="952.5,-494 952.5,-518 967.5,-518 967.5,-494 952.5,-494"/>
<text text-anchor="start" x="955.5" y="-502.2" font-family="Helvetica,sans-Serif" font-size="16.00">*</text>
<polygon fill="none" stroke="black" points="969.5,-494 969.5,-518 991.5,-518 991.5,-494 969.5,-494"/>
<text text-anchor="start" x="972.5" y="-502.2" font-family="Helvetica,sans-Serif" font-size="16.00">a:</text>
<polygon fill="none" stroke="black" points="993.5,-494 993.5,-518 1015.5,-518 1015.5,-494 993.5,-494"/>
<text text-anchor="start" x="996.5" y="-502.2" font-family="Helvetica,sans-Serif" font-size="16.00">b:</text>
<polygon fill="none" stroke="black" points="993.5,-486 993.5,-492 1015.5,-492 1015.5,-486 993.5,-486"/>
</g>
<!-- k_2&#45;&gt;u_17 -->
<g id="edge16" class="edge">
<title>k_2&#45;&gt;u_17:i_0</title>
<path fill="none" stroke="blue" d="M658.58,-563.98C665.98,-562.57 673.37,-561.22 680.5,-560 712.75,-554.48 966.08,-552.74 979.91,-521.69"/>
<polygon fill="blue" stroke="blue" points="979.52,-518.79 981.48,-519.21 981.05,-521.17 979.1,-520.74 979.52,-518.79"/>
<polyline fill="none" stroke="blue" points="980.07,-520.95 979.97,-521.44 "/>
</g>
<!-- u_19 -->
<g id="node22" class="node">
<title>u_19</title>
<polygon fill="none" stroke="black" points="851.5,-494 851.5,-518 866.5,-518 866.5,-494 851.5,-494"/>
<text text-anchor="start" x="854.5" y="-502.2" font-family="Helvetica,sans-Serif" font-size="16.00">*</text>
<polygon fill="none" stroke="black" points="868.5,-494 868.5,-518 890.5,-518 890.5,-494 868.5,-494"/>
<text text-anchor="start" x="871.5" y="-502.2" font-family="Helvetica,sans-Serif" font-size="16.00">a:</text>
<polygon fill="none" stroke="black" points="892.5,-494 892.5,-518 914.5,-518 914.5,-494 892.5,-494"/>
<text text-anchor="start" x="895.5" y="-502.2" font-family="Helvetica,sans-Serif" font-size="16.00">b:</text>
<polygon fill="none" stroke="black" points="892.5,-486 892.5,-492 914.5,-492 914.5,-486 892.5,-486"/>
</g>
<!-- k_2&#45;&gt;u_19 -->
<g id="edge18" class="edge">
<title>k_2&#45;&gt;u_19:i_0</title>
<path fill="none" stroke="blue" d="M661.15,-563.98C742.6,-547.2 857.58,-523.51 876.74,-519.57"/>
<polygon fill="blue" stroke="blue" points="879.3,-518.02 879.7,-519.98 877.74,-520.38 877.34,-518.42 879.3,-518.02"/>
<polyline fill="none" stroke="blue" points="877.54,-519.4 877.05,-519.5 "/>
</g>
<!-- u_21 -->
<g id="node24" class="node">
<title>u_21</title>
<polygon fill="none" stroke="black" points="750.5,-494 750.5,-518 765.5,-518 765.5,-494 750.5,-494"/>
<text text-anchor="start" x="753.5" y="-502.2" font-family="Helvetica,sans-Serif" font-size="16.00">*</text>
<polygon fill="none" stroke="black" points="767.5,-494 767.5,-518 789.5,-518 789.5,-494 767.5,-494"/>
<text text-anchor="start" x="770.5" y="-502.2" font-family="Helvetica,sans-Serif" font-size="16.00">a:</text>
<polygon fill="none" stroke="black" points="791.5,-494 791.5,-518 813.5,-518 813.5,-494 791.5,-494"/>
<text text-anchor="start" x="794.5" y="-502.2" font-family="Helvetica,sans-Serif" font-size="16.00">b:</text>
<polygon fill="none" stroke="black" points="791.5,-486 791.5,-492 813.5,-492 813.5,-486 791.5,-486"/>
</g>
<!-- k_2&#45;&gt;u_21 -->
<g id="edge20" class="edge">
<title>k_2&#45;&gt;u_21:i_0</title>
<path fill="none" stroke="blue" d="M656.97,-563.98C709.5,-551.52 770.35,-534.59 777.75,-521.55"/>
<polygon fill="blue" stroke="blue" points="777.54,-518.72 779.46,-519.28 778.9,-521.2 776.98,-520.64 777.54,-518.72"/>
<polyline fill="none" stroke="blue" points="777.94,-520.92 777.8,-521.4 "/>
</g>
<!-- u_25 -->
<g id="node28" class="node">
<title>u_25</title>
<polygon fill="none" stroke="black" points="724.5,-174 724.5,-198 739.5,-198 739.5,-174 724.5,-174"/>
<text text-anchor="start" x="727.5" y="-182.2" font-family="Helvetica,sans-Serif" font-size="16.00">*</text>
<polygon fill="none" stroke="black" points="741.5,-174 741.5,-198 763.5,-198 763.5,-174 741.5,-174"/>
<text text-anchor="start" x="744.5" y="-182.2" font-family="Helvetica,sans-Serif" font-size="16.00">a:</text>
<polygon fill="none" stroke="black" points="765.5,-174 765.5,-198 787.5,-198 787.5,-174 765.5,-174"/>
<text text-anchor="start" x="768.5" y="-182.2" font-family="Helvetica,sans-Serif" font-size="16.00">b:</text>
<polygon fill="none" stroke="black" points="765.5,-166 765.5,-172 787.5,-172 787.5,-166 765.5,-166"/>
</g>
<!-- k_2&#45;&gt;u_25 -->
<g id="edge32" class="edge">
<title>k_2&#45;&gt;u_25:i_0</title>
<path fill="none" stroke="blue" d="M595.28,-563.96C628.04,-529.53 700.1,-447.81 732.5,-364 758.83,-295.91 752.65,-273.4 752.5,-201.58"/>
<polygon fill="blue" stroke="blue" points="751.5,-199 753.5,-199 753.5,-201 751.5,-201 751.5,-199"/>
<polyline fill="none" stroke="blue" points="752.5,-201 752.5,-201.5 "/>
</g>
<!-- u_27 -->
<g id="node30" class="node">
<title>u_27</title>
<polygon fill="none" stroke="black" points="457.5,-174 457.5,-198 472.5,-198 472.5,-174 457.5,-174"/>
<text text-anchor="start" x="460.5" y="-182.2" font-family="Helvetica,sans-Serif" font-size="16.00">*</text>
<polygon fill="none" stroke="black" points="474.5,-174 474.5,-198 496.5,-198 496.5,-174 474.5,-174"/>
<text text-anchor="start" x="477.5" y="-182.2" font-family="Helvetica,sans-Serif" font-size="16.00">a:</text>
<polygon fill="none" stroke="black" points="498.5,-174 498.5,-198 520.5,-198 520.5,-174 498.5,-174"/>
<text text-anchor="start" x="501.5" y="-182.2" font-family="Helvetica,sans-Serif" font-size="16.00">b:</text>
<polygon fill="none" stroke="black" points="498.5,-166 498.5,-172 520.5,-172 520.5,-166 498.5,-166"/>
</g>
<!-- k_2&#45;&gt;u_27 -->
<g id="edge36" class="edge">
<title>k_2&#45;&gt;u_27:i_0</title>
<path fill="none" stroke="blue" d="M503.91,-563.99C458.04,-552.6 404.37,-537.31 384.5,-524 336.7,-491.97 303.5,-480.54 303.5,-423 303.5,-423 303.5,-423 303.5,-341 303.5,-293.49 303.89,-272.54 338.5,-240 387.24,-194.17 482.84,-264.85 485.45,-201.7"/>
<polygon fill="blue" stroke="blue" points="484.5,-198.98 486.5,-199.02 486.46,-201.02 484.46,-200.98 484.5,-198.98"/>
<polyline fill="none" stroke="blue" points="485.46,-201 485.45,-201.5 "/>
</g>
<!-- u_1 -->
<g id="node4" class="node">
<title>u_1</title>
<polygon fill="none" stroke="black" points="1490.5,-894 1490.5,-918 1512.5,-918 1512.5,-894 1490.5,-894"/>
<text text-anchor="start" x="1493.5" y="-902.2" font-family="Helvetica,sans-Serif" font-size="16.00">In</text>
<polygon fill="none" stroke="black" points="1514.5,-894 1514.5,-918 1566.5,-918 1566.5,-894 1514.5,-894"/>
<text text-anchor="start" x="1517.5" y="-902.2" font-family="Helvetica,sans-Serif" font-size="16.00">bus:4</text>
<polygon fill="none" stroke="black" points="1514.5,-886 1514.5,-892 1566.5,-892 1566.5,-886 1514.5,-886"/>
</g>
<!-- u_2 -->
<g id="node5" class="node">
<title>u_2</title>
<polygon fill="none" stroke="black" points="941.5,-654 941.5,-678 1002.5,-678 1002.5,-654 941.5,-654"/>
<text text-anchor="start" x="944.5" y="-662.2" font-family="Helvetica,sans-Serif" font-size="16.00">Phasor</text>
<polygon fill="none" stroke="black" points="1004.5,-654 1004.5,-678 1054.5,-678 1054.5,-654 1004.5,-654"/>
<text text-anchor="start" x="1007.5" y="-662.2" font-family="Helvetica,sans-Serif" font-size="16.00">trig:0</text>
<polygon fill="none" stroke="black" points="1056.5,-654 1056.5,-678 1111.5,-678 1111.5,-654 1056.5,-654"/>
<text text-anchor="start" x="1059.5" y="-662.2" font-family="Helvetica,sans-Serif" font-size="16.00">rate:1</text>
<polygon fill="none" stroke="black" points="1113.5,-654 1113.5,-678 1172.5,-678 1172.5,-654 1113.5,-654"/>
<text text-anchor="start" x="1116.5" y="-662.2" font-family="Helvetica,sans-Serif" font-size="16.00">start:0</text>
<polygon fill="none" stroke="black" points="1174.5,-654 1174.5,-678 1285.5,-678 1285.5,-654 1174.5,-654"/>
<text text-anchor="start" x="1177.5" y="-662.2" font-family="Helvetica,sans-Serif" font-size="16.00">end:96064.0</text>
<polygon fill="none" stroke="black" points="1287.5,-654 1287.5,-678 1393.5,-678 1393.5,-654 1287.5,-654"/>
<text text-anchor="start" x="1290.5" y="-662.2" font-family="Helvetica,sans-Serif" font-size="16.00">resetPos:0.0</text>
<polygon fill="none" stroke="black" points="1287.5,-646 1287.5,-652 1393.5,-652 1393.5,-646 1287.5,-646"/>
</g>
<!-- u_9 -->
<g id="node12" class="node">
<title>u_9</title>
<polygon fill="none" stroke="black" points="1314.5,-574 1314.5,-598 1327.5,-598 1327.5,-574 1314.5,-574"/>
<text text-anchor="start" x="1317.5" y="-582.2" font-family="Helvetica,sans-Serif" font-size="16.00">&#45;</text>
<polygon fill="none" stroke="black" points="1329.5,-574 1329.5,-598 1351.5,-598 1351.5,-574 1329.5,-574"/>
<text text-anchor="start" x="1332.5" y="-582.2" font-family="Helvetica,sans-Serif" font-size="16.00">a:</text>
<polygon fill="none" stroke="black" points="1353.5,-574 1353.5,-598 1375.5,-598 1375.5,-574 1353.5,-574"/>
<text text-anchor="start" x="1356.5" y="-582.2" font-family="Helvetica,sans-Serif" font-size="16.00">b:</text>
<polygon fill="none" stroke="black" points="1353.5,-566 1353.5,-572 1375.5,-572 1375.5,-566 1353.5,-566"/>
</g>
<!-- u_2&#45;&gt;u_9 -->
<g id="edge6" class="edge">
<title>u_2:o_0&#45;&gt;u_9:i_0</title>
<path fill="none" stroke="black" d="M1340.5,-645C1340.5,-625.51 1340.5,-619.96 1340.5,-601.78"/>
<polygon fill="black" stroke="black" points="1339.5,-599 1341.5,-599 1341.5,-601 1339.5,-601 1339.5,-599"/>
<polyline fill="none" stroke="black" points="1340.5,-601 1340.5,-601.5 "/>
</g>
<!-- u_29 -->
<g id="node32" class="node">
<title>u_29</title>
<polygon fill="none" stroke="black" points="1279.5,-14 1279.5,-38 1335.5,-38 1335.5,-14 1279.5,-14"/>
<text text-anchor="start" x="1282.5" y="-22.2" font-family="Helvetica,sans-Serif" font-size="16.00">BufWr</text>
<polygon fill="none" stroke="black" points="1337.5,-14 1337.5,-38 1434.5,-38 1434.5,-14 1337.5,-14"/>
<text text-anchor="start" x="1340.5" y="-22.2" font-family="Helvetica,sans-Serif" font-size="16.00">inputArray:</text>
<polygon fill="none" stroke="black" points="1436.5,-14 1436.5,-38 1512.5,-38 1512.5,-14 1436.5,-14"/>
<text text-anchor="start" x="1439.5" y="-22.2" font-family="Helvetica,sans-Serif" font-size="16.00">bufnum:</text>
<polygon fill="none" stroke="black" points="1514.5,-14 1514.5,-38 1601.5,-38 1601.5,-14 1514.5,-14"/>
<text text-anchor="start" x="1517.5" y="-22.2" font-family="Helvetica,sans-Serif" font-size="16.00">phase:1.0</text>
<polygon fill="none" stroke="black" points="1603.5,-14 1603.5,-38 1649.5,-38 1649.5,-14 1603.5,-14"/>
<text text-anchor="start" x="1606.5" y="-22.2" font-family="Helvetica,sans-Serif" font-size="16.00">loop:</text>
<polygon fill="none" stroke="black" points="1603.5,-6 1603.5,-12 1649.5,-12 1649.5,-6 1603.5,-6"/>
</g>
<!-- u_2&#45;&gt;u_29 -->
<g id="edge43" class="edge">
<title>u_2:o_0&#45;&gt;u_29:i_1</title>
<path fill="none" stroke="black" d="M1394.5,-649C1413,-649 1474.5,-521.5 1474.5,-503 1474.5,-503 1474.5,-503 1474.5,-181 1474.5,-118.75 1474.5,-102.55 1474.5,-41.56"/>
<polygon fill="black" stroke="black" points="1473.5,-39 1475.5,-39 1475.5,-41 1473.5,-41 1473.5,-39"/>
<polyline fill="none" stroke="black" points="1474.5,-41 1474.5,-41.5 "/>
</g>
<!-- u_3 -->
<g id="node6" class="node">
<title>u_3</title>
<polygon fill="none" stroke="yellow" points="1779.5,-654 1779.5,-678 1897.5,-678 1897.5,-654 1779.5,-654"/>
<text text-anchor="start" x="1782.5" y="-662.2" font-family="Helvetica,sans-Serif" font-size="16.00">MaxLocalBufs</text>
<polygon fill="none" stroke="yellow" points="1899.5,-654 1899.5,-678 1921.5,-678 1921.5,-654 1899.5,-654"/>
<text text-anchor="start" x="1902.5" y="-662.2" font-family="Helvetica,sans-Serif" font-size="16.00">:1</text>
<polygon fill="none" stroke="yellow" points="1899.5,-646 1899.5,-652 1921.5,-652 1921.5,-646 1899.5,-646"/>
</g>
<!-- u_4 -->
<g id="node7" class="node">
<title>u_4</title>
<polygon fill="none" stroke="yellow" points="1513.5,-574 1513.5,-598 1589.5,-598 1589.5,-574 1513.5,-574"/>
<text text-anchor="start" x="1516.5" y="-582.2" font-family="Helvetica,sans-Serif" font-size="16.00">LocalBuf</text>
<polygon fill="none" stroke="yellow" points="1591.5,-574 1591.5,-598 1708.5,-598 1708.5,-574 1591.5,-574"/>
<text text-anchor="start" x="1594.5" y="-582.2" font-family="Helvetica,sans-Serif" font-size="16.00">numFrames:1</text>
<polygon fill="none" stroke="yellow" points="1710.5,-574 1710.5,-598 1902.5,-598 1902.5,-574 1710.5,-574"/>
<text text-anchor="start" x="1713.5" y="-582.2" font-family="Helvetica,sans-Serif" font-size="16.00">numChannels:96064.0</text>
<polygon fill="none" stroke="yellow" points="1904.5,-574 1904.5,-598 1916.5,-598 1916.5,-574 1904.5,-574"/>
<text text-anchor="start" x="1907.5" y="-582.2" font-family="Helvetica,sans-Serif" font-size="16.00">:</text>
<polygon fill="none" stroke="yellow" points="1904.5,-566 1904.5,-572 1916.5,-572 1916.5,-566 1904.5,-566"/>
</g>
<!-- u_3&#45;&gt;u_4 -->
<g id="edge1" class="edge">
<title>u_3:o_0&#45;&gt;u_4:i_2</title>
<path fill="none" stroke="yellow" d="M1910.5,-645C1910.5,-625.51 1910.5,-619.96 1910.5,-601.78"/>
<polygon fill="yellow" stroke="yellow" points="1909.5,-599 1911.5,-599 1911.5,-601 1909.5,-601 1909.5,-599"/>
<polyline fill="none" stroke="yellow" points="1910.5,-601 1910.5,-601.5 "/>
</g>
<!-- u_5 -->
<g id="node8" class="node">
<title>u_5</title>
<polygon fill="none" stroke="yellow" points="1813.5,-494 1813.5,-518 1889.5,-518 1889.5,-494 1813.5,-494"/>
<text text-anchor="start" x="1816.5" y="-502.2" font-family="Helvetica,sans-Serif" font-size="16.00">ClearBuf</text>
<polygon fill="none" stroke="yellow" points="1891.5,-494 1891.5,-518 1929.5,-518 1929.5,-494 1891.5,-494"/>
<text text-anchor="start" x="1894.5" y="-502.2" font-family="Helvetica,sans-Serif" font-size="16.00">buf:</text>
<polygon fill="none" stroke="yellow" points="1891.5,-486 1891.5,-492 1929.5,-492 1929.5,-486 1891.5,-486"/>
</g>
<!-- u_4&#45;&gt;u_5 -->
<g id="edge2" class="edge">
<title>u_4:o_0&#45;&gt;u_5:i_0</title>
<path fill="none" stroke="yellow" d="M1910.5,-565C1910.5,-545.51 1910.5,-539.96 1910.5,-521.78"/>
<polygon fill="yellow" stroke="yellow" points="1909.5,-519 1911.5,-519 1911.5,-521 1909.5,-521 1909.5,-519"/>
<polyline fill="none" stroke="yellow" points="1910.5,-521 1910.5,-521.5 "/>
</g>
<!-- u_10 -->
<g id="node13" class="node">
<title>u_10</title>
<polygon fill="none" stroke="black" points="1053.5,-494 1053.5,-518 1109.5,-518 1109.5,-494 1053.5,-494"/>
<text text-anchor="start" x="1056.5" y="-502.2" font-family="Helvetica,sans-Serif" font-size="16.00">BufRd</text>
<polygon fill="none" stroke="black" points="1111.5,-494 1111.5,-518 1187.5,-518 1187.5,-494 1111.5,-494"/>
<text text-anchor="start" x="1114.5" y="-502.2" font-family="Helvetica,sans-Serif" font-size="16.00">bufnum:</text>
<polygon fill="none" stroke="black" points="1189.5,-494 1189.5,-518 1250.5,-518 1250.5,-494 1189.5,-494"/>
<text text-anchor="start" x="1192.5" y="-502.2" font-family="Helvetica,sans-Serif" font-size="16.00">phase:</text>
<polygon fill="none" stroke="black" points="1252.5,-494 1252.5,-518 1309.5,-518 1309.5,-494 1252.5,-494"/>
<text text-anchor="start" x="1255.5" y="-502.2" font-family="Helvetica,sans-Serif" font-size="16.00">loop:1</text>
<polygon fill="none" stroke="black" points="1311.5,-494 1311.5,-518 1436.5,-518 1436.5,-494 1311.5,-494"/>
<text text-anchor="start" x="1314.5" y="-502.2" font-family="Helvetica,sans-Serif" font-size="16.00">interpolation:2</text>
<polygon fill="none" stroke="black" points="1311.5,-486 1311.5,-492 1436.5,-492 1436.5,-486 1311.5,-486"/>
</g>
<!-- u_4&#45;&gt;u_10 -->
<g id="edge8" class="edge">
<title>u_4:o_0&#45;&gt;u_10:i_0</title>
<path fill="none" stroke="yellow" d="M1910.5,-565C1910.5,-481.28 1167.23,-600.85 1149.81,-521.89"/>
<polygon fill="yellow" stroke="yellow" points="1148.51,-519.11 1150.49,-518.89 1150.71,-520.88 1148.72,-521.1 1148.51,-519.11"/>
<polyline fill="none" stroke="yellow" points="1149.71,-520.99 1149.77,-521.49 "/>
</g>
<!-- u_4&#45;&gt;u_29 -->
<g id="edge42" class="edge">
<title>u_4:o_0&#45;&gt;u_29:i_0</title>
<path fill="none" stroke="yellow" d="M1910.5,-565C1910.5,-510.32 1842.88,-549.49 1794.5,-524 1620.29,-432.23 1436.5,-459.91 1436.5,-263 1436.5,-263 1436.5,-263 1436.5,-181 1436.5,-114.86 1386.88,-106.28 1385.53,-41.72"/>
<polygon fill="yellow" stroke="yellow" points="1384.5,-39.01 1386.5,-38.99 1386.52,-40.99 1384.52,-41.01 1384.5,-39.01"/>
<polyline fill="none" stroke="yellow" points="1385.52,-41 1385.53,-41.5 "/>
</g>
<!-- u_7 -->
<g id="node10" class="node">
<title>u_7</title>
<polygon fill="none" stroke="blue" points="1391.5,-734 1391.5,-758 1431.5,-758 1431.5,-734 1391.5,-734"/>
<text text-anchor="start" x="1394.5" y="-742.2" font-family="Helvetica,sans-Serif" font-size="16.00">Max</text>
<polygon fill="none" stroke="blue" points="1433.5,-734 1433.5,-758 1455.5,-758 1455.5,-734 1433.5,-734"/>
<text text-anchor="start" x="1436.5" y="-742.2" font-family="Helvetica,sans-Serif" font-size="16.00">a:</text>
<polygon fill="none" stroke="blue" points="1457.5,-734 1457.5,-758 1500.5,-758 1500.5,-734 1457.5,-734"/>
<text text-anchor="start" x="1460.5" y="-742.2" font-family="Helvetica,sans-Serif" font-size="16.00">b:64</text>
<polygon fill="none" stroke="blue" points="1457.5,-726 1457.5,-732 1500.5,-732 1500.5,-726 1457.5,-726"/>
</g>
<!-- u_6&#45;&gt;u_7 -->
<g id="edge4" class="edge">
<title>u_6:o_0&#45;&gt;u_7:i_0</title>
<path fill="none" stroke="blue" d="M1444.5,-805C1444.5,-785.51 1444.5,-779.96 1444.5,-761.78"/>
<polygon fill="blue" stroke="blue" points="1443.5,-759 1445.5,-759 1445.5,-761 1443.5,-761 1443.5,-759"/>
<polyline fill="none" stroke="blue" points="1444.5,-761 1444.5,-761.5 "/>
</g>
<!-- u_8 -->
<g id="node11" class="node">
<title>u_8</title>
<polygon fill="none" stroke="blue" points="1431.5,-654 1431.5,-678 1466.5,-678 1466.5,-654 1431.5,-654"/>
<text text-anchor="start" x="1434.5" y="-662.2" font-family="Helvetica,sans-Serif" font-size="16.00">Min</text>
<polygon fill="none" stroke="blue" points="1468.5,-654 1468.5,-678 1490.5,-678 1490.5,-654 1468.5,-654"/>
<text text-anchor="start" x="1471.5" y="-662.2" font-family="Helvetica,sans-Serif" font-size="16.00">a:</text>
<polygon fill="none" stroke="blue" points="1492.5,-654 1492.5,-678 1583.5,-678 1583.5,-654 1492.5,-654"/>
<text text-anchor="start" x="1495.5" y="-662.2" font-family="Helvetica,sans-Serif" font-size="16.00">b:96000.0</text>
<polygon fill="none" stroke="blue" points="1492.5,-646 1492.5,-652 1583.5,-652 1583.5,-646 1492.5,-646"/>
</g>
<!-- u_7&#45;&gt;u_8 -->
<g id="edge5" class="edge">
<title>u_7:o_0&#45;&gt;u_8:i_0</title>
<path fill="none" stroke="blue" d="M1501.5,-729C1505.52,-729 1501.66,-723.85 1500.5,-720 1494.88,-701.31 1480.9,-699.6 1479.6,-681.75"/>
<polygon fill="blue" stroke="blue" points="1478.5,-679.04 1480.5,-678.96 1480.57,-680.96 1478.57,-681.03 1478.5,-679.04"/>
<polyline fill="none" stroke="blue" points="1479.57,-681 1479.59,-681.5 "/>
</g>
<!-- u_8&#45;&gt;u_9 -->
<g id="edge7" class="edge">
<title>u_8:o_0&#45;&gt;u_9:i_1</title>
<path fill="none" stroke="blue" d="M1538.5,-645C1538.5,-607.58 1420.54,-586.98 1379.33,-586.03"/>
<polygon fill="blue" stroke="blue" points="1376.49,-587 1376.51,-585 1378.51,-585.02 1378.49,-587.02 1376.49,-587"/>
<polyline fill="none" stroke="blue" points="1378.5,-586.02 1379,-586.03 "/>
</g>
<!-- u_9&#45;&gt;u_10 -->
<g id="edge9" class="edge">
<title>u_9:o_0&#45;&gt;u_10:i_1</title>
<path fill="none" stroke="black" d="M1364.5,-565C1364.5,-498.31 1223.44,-584.2 1219.58,-521.69"/>
<polygon fill="black" stroke="black" points="1218.5,-519.03 1220.5,-518.97 1220.56,-520.97 1218.56,-521.03 1218.5,-519.03"/>
<polyline fill="none" stroke="black" points="1219.56,-521 1219.58,-521.5 "/>
</g>
<!-- u_22 -->
<g id="node25" class="node">
<title>u_22</title>
<polygon fill="none" stroke="black" points="897.5,-414 897.5,-438 951.5,-438 951.5,-414 897.5,-414"/>
<text text-anchor="start" x="900.5" y="-422.2" font-family="Helvetica,sans-Serif" font-size="16.00">Sum4</text>
<polygon fill="none" stroke="black" points="953.5,-414 953.5,-438 965.5,-438 965.5,-414 953.5,-414"/>
<text text-anchor="start" x="956.5" y="-422.2" font-family="Helvetica,sans-Serif" font-size="16.00">:</text>
<polygon fill="none" stroke="black" points="967.5,-414 967.5,-438 979.5,-438 979.5,-414 967.5,-414"/>
<text text-anchor="start" x="970.5" y="-422.2" font-family="Helvetica,sans-Serif" font-size="16.00">:</text>
<polygon fill="none" stroke="black" points="981.5,-414 981.5,-438 993.5,-438 993.5,-414 981.5,-414"/>
<text text-anchor="start" x="984.5" y="-422.2" font-family="Helvetica,sans-Serif" font-size="16.00">:</text>
<polygon fill="none" stroke="black" points="995.5,-414 995.5,-438 1007.5,-438 1007.5,-414 995.5,-414"/>
<text text-anchor="start" x="998.5" y="-422.2" font-family="Helvetica,sans-Serif" font-size="16.00">:</text>
<polygon fill="none" stroke="black" points="995.5,-406 995.5,-412 1007.5,-412 1007.5,-406 995.5,-406"/>
</g>
<!-- u_10&#45;&gt;u_22 -->
<g id="edge25" class="edge">
<title>u_10:o_0&#45;&gt;u_22:i_3</title>
<path fill="none" stroke="black" d="M1374.5,-485C1374.5,-427.17 1174.59,-453.27 1117.5,-444 1069.89,-436.27 1058.01,-426.36 1011.05,-426.01"/>
<polygon fill="black" stroke="black" points="1008.5,-427 1008.5,-425 1010.5,-425.01 1010.5,-427.01 1008.5,-427"/>
<polyline fill="none" stroke="black" points="1010.5,-426.01 1011,-426.01 "/>
</g>
<!-- u_23 -->
<g id="node26" class="node">
<title>u_23</title>
<polygon fill="none" stroke="black" points="807.5,-334 807.5,-358 863.5,-358 863.5,-334 807.5,-334"/>
<text text-anchor="start" x="810.5" y="-342.2" font-family="Helvetica,sans-Serif" font-size="16.00">Select</text>
<polygon fill="none" stroke="black" points="865.5,-334 865.5,-358 924.5,-358 924.5,-334 865.5,-334"/>
<text text-anchor="start" x="868.5" y="-342.2" font-family="Helvetica,sans-Serif" font-size="16.00">which:</text>
<polygon fill="none" stroke="black" points="926.5,-334 926.5,-358 979.5,-358 979.5,-334 926.5,-334"/>
<text text-anchor="start" x="929.5" y="-342.2" font-family="Helvetica,sans-Serif" font-size="16.00">array:</text>
<polygon fill="none" stroke="black" points="981.5,-334 981.5,-358 993.5,-358 993.5,-334 981.5,-334"/>
<text text-anchor="start" x="984.5" y="-342.2" font-family="Helvetica,sans-Serif" font-size="16.00">:</text>
<polygon fill="none" stroke="black" points="995.5,-334 995.5,-358 1007.5,-358 1007.5,-334 995.5,-334"/>
<text text-anchor="start" x="998.5" y="-342.2" font-family="Helvetica,sans-Serif" font-size="16.00">:</text>
<polygon fill="none" stroke="black" points="995.5,-326 995.5,-332 1007.5,-332 1007.5,-326 995.5,-326"/>
</g>
<!-- u_10&#45;&gt;u_23 -->
<g id="edge27" class="edge">
<title>u_10:o_0&#45;&gt;u_23:i_1</title>
<path fill="none" stroke="black" d="M1374.5,-485C1374.5,-437.03 968.17,-408.83 953.89,-361.56"/>
<polygon fill="black" stroke="black" points="952.51,-359.15 954.49,-358.85 954.79,-360.83 952.81,-361.13 952.51,-359.15"/>
<polyline fill="none" stroke="black" points="953.8,-360.98 953.87,-361.47 "/>
</g>
<!-- u_10&#45;&gt;u_23 -->
<g id="edge28" class="edge">
<title>u_10:o_0&#45;&gt;u_23:i_2</title>
<path fill="none" stroke="black" d="M1374.5,-485C1374.5,-390.05 1268.91,-428.99 1178.5,-400 1138.13,-387.05 994.46,-401.69 987.74,-361.96"/>
<polygon fill="black" stroke="black" points="986.5,-359.08 988.5,-358.92 988.66,-360.91 986.67,-361.08 986.5,-359.08"/>
<polyline fill="none" stroke="black" points="987.66,-360.99 987.71,-361.49 "/>
</g>
<!-- u_12 -->
<g id="node15" class="node">
<title>u_12</title>
<polygon fill="none" stroke="black" points="380.5,-334 380.5,-358 402.5,-358 402.5,-334 380.5,-334"/>
<text text-anchor="start" x="383.5" y="-342.2" font-family="Helvetica,sans-Serif" font-size="16.00">In</text>
<polygon fill="none" stroke="black" points="404.5,-334 404.5,-358 445.5,-358 445.5,-334 404.5,-334"/>
<text text-anchor="start" x="407.5" y="-342.2" font-family="Helvetica,sans-Serif" font-size="16.00">bus:</text>
<polygon fill="none" stroke="black" points="404.5,-326 404.5,-332 445.5,-332 445.5,-326 404.5,-326"/>
</g>
<!-- u_11&#45;&gt;u_12 -->
<g id="edge11" class="edge">
<title>u_11:o_0&#45;&gt;u_12:i_0</title>
<path fill="none" stroke="blue" d="M605.5,-405C605.5,-339.31 519.59,-398.2 463.5,-364 454.99,-358.81 456.98,-348.24 449.24,-346.31"/>
<polygon fill="blue" stroke="blue" points="446.39,-346.99 446.61,-345.01 448.6,-345.23 448.38,-347.22 446.39,-346.99"/>
<polyline fill="none" stroke="blue" points="448.49,-346.22 448.98,-346.28 "/>
</g>
<!-- u_12&#45;&gt;u_13 -->
<g id="edge13" class="edge">
<title>u_12:o_0&#45;&gt;u_13:i_1</title>
<path fill="none" stroke="black" d="M425.5,-325C425.5,-304.5 411.87,-300.83 410.6,-281.91"/>
<polygon fill="black" stroke="black" points="409.5,-279.03 411.5,-278.97 411.57,-280.97 409.57,-281.03 409.5,-279.03"/>
<polyline fill="none" stroke="black" points="410.57,-281 410.58,-281.5 "/>
</g>
<!-- u_24 -->
<g id="node27" class="node">
<title>u_24</title>
<polygon fill="none" stroke="black" points="790.5,-254 790.5,-278 810.5,-278 810.5,-254 790.5,-254"/>
<text text-anchor="start" x="793.5" y="-262.2" font-family="Helvetica,sans-Serif" font-size="16.00">+</text>
<polygon fill="none" stroke="black" points="812.5,-254 812.5,-278 834.5,-278 834.5,-254 812.5,-254"/>
<text text-anchor="start" x="815.5" y="-262.2" font-family="Helvetica,sans-Serif" font-size="16.00">a:</text>
<polygon fill="none" stroke="black" points="836.5,-254 836.5,-278 858.5,-278 858.5,-254 836.5,-254"/>
<text text-anchor="start" x="839.5" y="-262.2" font-family="Helvetica,sans-Serif" font-size="16.00">b:</text>
<polygon fill="none" stroke="black" points="836.5,-246 836.5,-252 858.5,-252 858.5,-246 836.5,-246"/>
</g>
<!-- u_12&#45;&gt;u_24 -->
<g id="edge30" class="edge">
<title>u_12:o_0&#45;&gt;u_24:i_0</title>
<path fill="none" stroke="black" d="M446.5,-329C455.05,-329 455.33,-322.53 463.5,-320 501.06,-308.38 808.58,-318.75 822.98,-281.75"/>
<polygon fill="black" stroke="black" points="822.52,-278.81 824.48,-279.19 824.11,-281.15 822.14,-280.78 822.52,-278.81"/>
<polyline fill="none" stroke="black" points="823.13,-280.96 823.03,-281.46 "/>
</g>
<!-- u_26 -->
<g id="node29" class="node">
<title>u_26</title>
<polygon fill="none" stroke="black" points="459.5,-254 459.5,-278 479.5,-278 479.5,-254 459.5,-254"/>
<text text-anchor="start" x="462.5" y="-262.2" font-family="Helvetica,sans-Serif" font-size="16.00">+</text>
<polygon fill="none" stroke="black" points="481.5,-254 481.5,-278 503.5,-278 503.5,-254 481.5,-254"/>
<text text-anchor="start" x="484.5" y="-262.2" font-family="Helvetica,sans-Serif" font-size="16.00">a:</text>
<polygon fill="none" stroke="black" points="505.5,-254 505.5,-278 527.5,-278 527.5,-254 505.5,-254"/>
<text text-anchor="start" x="508.5" y="-262.2" font-family="Helvetica,sans-Serif" font-size="16.00">b:</text>
<polygon fill="none" stroke="black" points="505.5,-246 505.5,-252 527.5,-252 527.5,-246 505.5,-246"/>
</g>
<!-- u_12&#45;&gt;u_26 -->
<g id="edge34" class="edge">
<title>u_12:o_0&#45;&gt;u_26:i_0</title>
<path fill="none" stroke="black" d="M446.5,-329C453.4,-329 486.12,-293.53 491.69,-281.67"/>
<polygon fill="black" stroke="black" points="491.54,-278.71 493.46,-279.29 492.88,-281.2 490.96,-280.62 491.54,-278.71"/>
<polyline fill="none" stroke="black" points="491.92,-280.91 491.78,-281.39 "/>
</g>
<!-- u_28 -->
<g id="node31" class="node">
<title>u_28</title>
<polygon fill="none" stroke="black" points="315.5,-94 315.5,-118 371.5,-118 371.5,-94 315.5,-94"/>
<text text-anchor="start" x="318.5" y="-102.2" font-family="Helvetica,sans-Serif" font-size="16.00">Select</text>
<polygon fill="none" stroke="black" points="373.5,-94 373.5,-118 432.5,-118 432.5,-94 373.5,-94"/>
<text text-anchor="start" x="376.5" y="-102.2" font-family="Helvetica,sans-Serif" font-size="16.00">which:</text>
<polygon fill="none" stroke="black" points="434.5,-94 434.5,-118 487.5,-118 487.5,-94 434.5,-94"/>
<text text-anchor="start" x="437.5" y="-102.2" font-family="Helvetica,sans-Serif" font-size="16.00">array:</text>
<polygon fill="none" stroke="black" points="489.5,-94 489.5,-118 501.5,-118 501.5,-94 489.5,-94"/>
<text text-anchor="start" x="492.5" y="-102.2" font-family="Helvetica,sans-Serif" font-size="16.00">:</text>
<polygon fill="none" stroke="black" points="503.5,-94 503.5,-118 515.5,-118 515.5,-94 503.5,-94"/>
<text text-anchor="start" x="506.5" y="-102.2" font-family="Helvetica,sans-Serif" font-size="16.00">:</text>
<polygon fill="none" stroke="black" points="503.5,-86 503.5,-92 515.5,-92 515.5,-86 503.5,-86"/>
</g>
<!-- u_13&#45;&gt;u_28 -->
<g id="edge40" class="edge">
<title>u_13:o_0&#45;&gt;u_28:i_2</title>
<path fill="none" stroke="black" d="M410.5,-245C410.5,-205.36 414.1,-191.99 437.5,-160 455.55,-135.32 493.06,-149.61 495.39,-121.82"/>
<polygon fill="black" stroke="black" points="494.5,-118.96 496.5,-119.04 496.42,-121.04 494.42,-120.96 494.5,-118.96"/>
<polyline fill="none" stroke="black" points="495.42,-121 495.4,-121.5 "/>
</g>
<!-- u_15 -->
<g id="node18" class="node">
<title>u_15</title>
<polygon fill="none" stroke="blue" points="200.5,-414 200.5,-438 222.5,-438 222.5,-414 200.5,-414"/>
<text text-anchor="start" x="203.5" y="-422.2" font-family="Helvetica,sans-Serif" font-size="16.00">In</text>
<polygon fill="none" stroke="blue" points="224.5,-414 224.5,-438 265.5,-438 265.5,-414 224.5,-414"/>
<text text-anchor="start" x="227.5" y="-422.2" font-family="Helvetica,sans-Serif" font-size="16.00">bus:</text>
<polygon fill="none" stroke="blue" points="224.5,-406 224.5,-412 265.5,-412 265.5,-406 224.5,-406"/>
</g>
<!-- u_14&#45;&gt;u_15 -->
<g id="edge15" class="edge">
<title>u_14:o_0&#45;&gt;u_15:i_0</title>
<path fill="none" stroke="blue" d="M247.5,-485C247.5,-465.5 245.68,-459.97 245.51,-441.78"/>
<polygon fill="blue" stroke="blue" points="244.5,-439 246.5,-439 246.51,-441 244.51,-441 244.5,-439"/>
<polyline fill="none" stroke="blue" points="245.51,-441 245.51,-441.5 "/>
</g>
<!-- u_15&#45;&gt;u_23 -->
<g id="edge26" class="edge">
<title>u_15:o_0&#45;&gt;u_23:i_0</title>
<path fill="none" stroke="blue" d="M266.5,-409C308.47,-409 318.69,-403.61 360.5,-400 389.33,-397.51 867.27,-389.22 893.39,-361.39"/>
<polygon fill="blue" stroke="blue" points="893.59,-358.58 895.41,-359.42 894.56,-361.24 892.75,-360.39 893.59,-358.58"/>
<polyline fill="none" stroke="blue" points="893.66,-360.81 893.45,-361.27 "/>
</g>
<!-- u_15&#45;&gt;u_28 -->
<g id="edge38" class="edge">
<title>u_15:o_0&#45;&gt;u_28:i_0</title>
<path fill="none" stroke="blue" d="M245.5,-405C245.5,-329.1 252.72,-306.39 289.5,-240 324.74,-176.39 400.69,-192.2 402.47,-121.55"/>
<polygon fill="blue" stroke="blue" points="401.5,-118.99 403.5,-119.01 403.48,-121.01 401.48,-120.99 401.5,-118.99"/>
<polyline fill="none" stroke="blue" points="402.48,-121 402.47,-121.5 "/>
</g>
<!-- u_16 -->
<g id="node19" class="node">
<title>u_16</title>
<polygon fill="none" stroke="black" points="1092.5,-574 1092.5,-598 1191.5,-598 1191.5,-574 1092.5,-574"/>
<text text-anchor="start" x="1095.5" y="-582.2" font-family="Helvetica,sans-Serif" font-size="16.00">InFeedback</text>
<polygon fill="none" stroke="black" points="1193.5,-574 1193.5,-598 1245.5,-598 1245.5,-574 1193.5,-574"/>
<text text-anchor="start" x="1196.5" y="-582.2" font-family="Helvetica,sans-Serif" font-size="16.00">bus:8</text>
<polygon fill="none" stroke="black" points="1193.5,-566 1193.5,-572 1245.5,-572 1245.5,-566 1193.5,-566"/>
</g>
<!-- u_16&#45;&gt;u_17 -->
<g id="edge17" class="edge">
<title>u_16:o_0&#45;&gt;u_17:i_1</title>
<path fill="none" stroke="black" d="M1219.5,-565C1219.5,-480.35 1107.15,-565.73 1033.5,-524 1024.82,-519.08 1026.95,-508.3 1019.23,-506.32"/>
<polygon fill="black" stroke="black" points="1016.39,-506.99 1016.61,-505.01 1018.6,-505.24 1018.37,-507.22 1016.39,-506.99"/>
<polyline fill="none" stroke="black" points="1018.49,-506.23 1018.98,-506.29 "/>
</g>
<!-- u_17&#45;&gt;u_22 -->
<g id="edge24" class="edge">
<title>u_17:o_0&#45;&gt;u_22:i_2</title>
<path fill="none" stroke="black" d="M1004.5,-485C1004.5,-464.23 989.06,-461.06 987.61,-441.94"/>
<polygon fill="black" stroke="black" points="986.5,-439.04 988.5,-438.96 988.57,-440.96 986.57,-441.04 986.5,-439.04"/>
<polyline fill="none" stroke="black" points="987.57,-441 987.59,-441.5 "/>
</g>
<!-- u_18 -->
<g id="node21" class="node">
<title>u_18</title>
<polygon fill="none" stroke="black" points="901.5,-574 901.5,-598 1000.5,-598 1000.5,-574 901.5,-574"/>
<text text-anchor="start" x="904.5" y="-582.2" font-family="Helvetica,sans-Serif" font-size="16.00">InFeedback</text>
<polygon fill="none" stroke="black" points="1002.5,-574 1002.5,-598 1054.5,-598 1054.5,-574 1002.5,-574"/>
<text text-anchor="start" x="1005.5" y="-582.2" font-family="Helvetica,sans-Serif" font-size="16.00">bus:9</text>
<polygon fill="none" stroke="black" points="1002.5,-566 1002.5,-572 1054.5,-572 1054.5,-566 1002.5,-566"/>
</g>
<!-- u_18&#45;&gt;u_19 -->
<g id="edge19" class="edge">
<title>u_18:o_0&#45;&gt;u_19:i_1</title>
<path fill="none" stroke="black" d="M1028.5,-565C1028.5,-506.73 907.38,-575.97 903.59,-521.68"/>
<polygon fill="black" stroke="black" points="902.5,-519.03 904.5,-518.97 904.57,-520.97 902.57,-521.03 902.5,-519.03"/>
<polyline fill="none" stroke="black" points="903.57,-521 903.58,-521.5 "/>
</g>
<!-- u_19&#45;&gt;u_22 -->
<g id="edge23" class="edge">
<title>u_19:o_0&#45;&gt;u_22:i_1</title>
<path fill="none" stroke="black" d="M915.5,-489C923.34,-489 966.02,-453.74 972.64,-441.56"/>
<polygon fill="black" stroke="black" points="972.55,-438.68 974.45,-439.32 973.81,-441.21 971.91,-440.58 972.55,-438.68"/>
<polyline fill="none" stroke="black" points="972.86,-440.9 972.7,-441.37 "/>
</g>
<!-- u_20 -->
<g id="node23" class="node">
<title>u_20</title>
<polygon fill="none" stroke="black" points="700.5,-574 700.5,-598 799.5,-598 799.5,-574 700.5,-574"/>
<text text-anchor="start" x="703.5" y="-582.2" font-family="Helvetica,sans-Serif" font-size="16.00">InFeedback</text>
<polygon fill="none" stroke="black" points="801.5,-574 801.5,-598 863.5,-598 863.5,-574 801.5,-574"/>
<text text-anchor="start" x="804.5" y="-582.2" font-family="Helvetica,sans-Serif" font-size="16.00">bus:10</text>
<polygon fill="none" stroke="black" points="801.5,-566 801.5,-572 863.5,-572 863.5,-566 801.5,-566"/>
</g>
<!-- u_20&#45;&gt;u_21 -->
<g id="edge21" class="edge">
<title>u_20:o_0&#45;&gt;u_21:i_1</title>
<path fill="none" stroke="black" d="M832.5,-565C832.5,-541.55 804.8,-543.23 802.63,-521.74"/>
<polygon fill="black" stroke="black" points="801.5,-519.05 803.5,-518.95 803.6,-520.95 801.6,-521.05 801.5,-519.05"/>
<polyline fill="none" stroke="black" points="802.6,-521 802.62,-521.5 "/>
</g>
<!-- u_21&#45;&gt;u_22 -->
<g id="edge22" class="edge">
<title>u_21:o_0&#45;&gt;u_22:i_0</title>
<path fill="none" stroke="black" d="M814.5,-489C823.05,-489 823.62,-483.32 831.5,-480 885.7,-457.19 957.22,-497.44 959.45,-441.73"/>
<polygon fill="black" stroke="black" points="958.5,-438.98 960.5,-439.02 960.46,-441.02 958.46,-440.98 958.5,-438.98"/>
<polyline fill="none" stroke="black" points="959.46,-441 959.45,-441.5 "/>
</g>
<!-- u_22&#45;&gt;u_23 -->
<g id="edge29" class="edge">
<title>u_22:o_0&#45;&gt;u_23:i_3</title>
<path fill="none" stroke="black" d="M1001.5,-405C1001.5,-385.51 1001.5,-379.96 1001.5,-361.78"/>
<polygon fill="black" stroke="black" points="1000.5,-359 1002.5,-359 1002.5,-361 1000.5,-361 1000.5,-359"/>
<polyline fill="none" stroke="black" points="1001.5,-361 1001.5,-361.5 "/>
</g>
<!-- u_23&#45;&gt;u_24 -->
<g id="edge31" class="edge">
<title>u_23:o_0&#45;&gt;u_24:i_1</title>
<path fill="none" stroke="black" d="M1001.5,-325C1001.5,-254.54 851.68,-347.82 847.59,-281.84"/>
<polygon fill="black" stroke="black" points="846.5,-279.03 848.5,-278.97 848.56,-280.97 846.56,-281.03 846.5,-279.03"/>
<polyline fill="none" stroke="black" points="847.56,-281 847.58,-281.5 "/>
</g>
<!-- u_23&#45;&gt;u_26 -->
<g id="edge35" class="edge">
<title>u_23:o_0&#45;&gt;u_26:i_1</title>
<path fill="none" stroke="black" d="M1001.5,-325C1001.5,-299.14 575.67,-267.52 531.04,-266.05"/>
<polygon fill="black" stroke="black" points="528.48,-267 528.52,-265 530.52,-265.04 530.48,-267.04 528.48,-267"/>
<polyline fill="none" stroke="black" points="530.5,-266.04 531,-266.05 "/>
</g>
<!-- u_31 -->
<g id="node34" class="node">
<title>u_31</title>
<polygon fill="none" stroke="black" points="896.5,-250 896.5,-274 932.5,-274 932.5,-250 896.5,-250"/>
<text text-anchor="start" x="899.5" y="-258.2" font-family="Helvetica,sans-Serif" font-size="16.00">Out</text>
<polygon fill="none" stroke="black" points="934.5,-250 934.5,-274 975.5,-274 975.5,-250 934.5,-250"/>
<text text-anchor="start" x="937.5" y="-258.2" font-family="Helvetica,sans-Serif" font-size="16.00">bus:</text>
<polygon fill="none" stroke="black" points="977.5,-250 977.5,-274 1104.5,-274 1104.5,-250 977.5,-250"/>
<text text-anchor="start" x="980.5" y="-258.2" font-family="Helvetica,sans-Serif" font-size="16.00">channelsArray:</text>
</g>
<!-- u_23&#45;&gt;u_31 -->
<g id="edge47" class="edge">
<title>u_23:o_0&#45;&gt;u_31:i_1</title>
<path fill="none" stroke="black" d="M1001.5,-325C1001.5,-297.43 1039.04,-303.06 1041.39,-277.57"/>
<polygon fill="black" stroke="black" points="1040.5,-274.96 1042.5,-275.04 1042.41,-277.04 1040.41,-276.95 1040.5,-274.96"/>
<polyline fill="none" stroke="black" points="1041.41,-277 1041.39,-277.5 "/>
</g>
<!-- u_24&#45;&gt;u_25 -->
<g id="edge33" class="edge">
<title>u_24:o_0&#45;&gt;u_25:i_1</title>
<path fill="none" stroke="black" d="M847.5,-245C847.5,-208.28 779.79,-235.27 776.62,-201.54"/>
<polygon fill="black" stroke="black" points="775.5,-199.05 777.5,-198.95 777.59,-200.95 775.59,-201.04 775.5,-199.05"/>
<polyline fill="none" stroke="black" points="776.59,-201 776.61,-201.5 "/>
</g>
<!-- u_25&#45;&gt;u_28 -->
<g id="edge39" class="edge">
<title>u_25:o_0&#45;&gt;u_28:i_1</title>
<path fill="none" stroke="black" d="M776.5,-165C776.5,-95.22 470.05,-187.16 461.68,-121.81"/>
<polygon fill="black" stroke="black" points="460.5,-119.06 462.5,-118.94 462.62,-120.93 460.63,-121.06 460.5,-119.06"/>
<polyline fill="none" stroke="black" points="461.62,-121 461.66,-121.5 "/>
</g>
<!-- u_26&#45;&gt;u_27 -->
<g id="edge37" class="edge">
<title>u_26:o_0&#45;&gt;u_27:i_1</title>
<path fill="none" stroke="black" d="M516.5,-245C516.5,-225.29 510.14,-220.15 509.54,-201.81"/>
<polygon fill="black" stroke="black" points="508.5,-199.02 510.5,-198.98 510.53,-200.98 508.53,-201.02 508.5,-199.02"/>
<polyline fill="none" stroke="black" points="509.53,-201 509.54,-201.5 "/>
</g>
<!-- u_27&#45;&gt;u_28 -->
<g id="edge41" class="edge">
<title>u_27:o_0&#45;&gt;u_28:i_3</title>
<path fill="none" stroke="black" d="M509.5,-165C509.5,-145.51 509.5,-139.96 509.5,-121.78"/>
<polygon fill="black" stroke="black" points="508.5,-119 510.5,-119 510.5,-121 508.5,-121 508.5,-119"/>
<polyline fill="none" stroke="black" points="509.5,-121 509.5,-121.5 "/>
</g>
<!-- u_28&#45;&gt;u_29 -->
<g id="edge44" class="edge">
<title>u_28:o_0&#45;&gt;u_29:i_3</title>
<path fill="none" stroke="black" d="M516.5,-89C546.64,-89 1576.49,-70.75 1624.75,-41.15"/>
<polygon fill="black" stroke="black" points="1625.72,-38.37 1627.28,-39.63 1626.01,-41.18 1624.46,-39.92 1625.72,-38.37"/>
<polyline fill="none" stroke="black" points="1625.24,-40.55 1624.92,-40.94 "/>
</g>
<!-- u_30&#45;&gt;u_31 -->
<g id="edge46" class="edge">
<title>u_30:o_0&#45;&gt;u_31:i_0</title>
<path fill="none" stroke="blue" d="M715.5,-329C728.47,-329 933.84,-292.31 953.06,-277.08"/>
<polygon fill="blue" stroke="blue" points="953.68,-274.43 955.32,-275.57 954.19,-277.21 952.54,-276.08 953.68,-274.43"/>
<polyline fill="none" stroke="blue" points="953.36,-276.65 953.08,-277.06 "/>
</g>
</g>
</svg>
